# xmcd
#
# Track frame offsets:
#	150
#	13124
#	29682
#	39712
#	48233
#	58986
#	72344
#	81943
#	94966
#	101011
#	114320
#	125396
#	137598
#	146427
#	160451
#
# Disc length: 2265 seconds
#
# Revision: 0
# Processed by: cddbd v1.5.2PL0 Copyright (c) Steve Scherf et al.
# Submitted via: audiograbber 1.83.01
#
DISCID=d808d70f
DTITLE=Various Artist - HORIZONS CD1
DYEAR=2005
DGENRE=Country
TTITLE0=Willie Nelson - Home Is Where You're Happy
TTITLE1=Rex Allen jr. - Memory Train
TTITLE2=Waylon Jennings - White Lightning
TTITLE3=Johny Cash - A Boy Named Sue
TTITLE4=Don Gibson - Oh Lonesome Me
TTITLE5=Hank Williams - Jambalaja
TTITLE6=Dave Dudley - Six Days On The Road
TTITLE7=Johny Cash - Wanted Man
TTITLE8=Nashville 10 - Singing My Song
TTITLE9=Tex Williams - Smoke,Smoke,Smoke
TTITLE10=Dolly Parton - It Wasn't God Woh Made Honky Tonk Angels
TTITLE11=Lee Hazlewood - These Boots Are Made For Walking
TTITLE12=Willie Nelson - One Step Beyond
TTITLE13=Tom T. Hall - Week In A Country Jail
TTITLE14=Webb Pierce - In The Jaillhouse Now
EXTD=
EXTT0=
EXTT1=
EXTT2=
EXTT3=
EXTT4=
EXTT5=
EXTT6=
EXTT7=
EXTT8=
EXTT9=
EXTT10=
EXTT11=
EXTT12=
EXTT13=
EXTT14=
PLAYORDER=
